inDegrees=no
num_controls=7
num_derivatives=13
num_iterations=167
num_multipliers=7
num_parameters=0
num_slacks=7
num_states=26
objective=5.593122
objective_accelerations=0.622310
objective_balance=0.005713
objective_effort=0.465503
objective_height=4.452970
objective_ligament=0.046625
solver_duration=1408.033378
status=Solve_Succeeded
success=true
DataType=double
version=3
OpenSimVersion=4.4-2022-07-23-0e9fedc
endheader
time	/jointset/ground_pelvis/pelvis_tilt/value	/jointset/ground_pelvis/pelvis_tx/value	/jointset/ground_pelvis/pelvis_ty/value	/jointset/hip_r/hip_flexion_r/value	/jointset/hip_r/hip_adduction_r/value	/jointset/hip_r/hip_rotation_r/value	/jointset/back/lumbar_extension/value	/jointset/patellofemoral_r/patellar_flexion_r/value	/jointset/knee_r/knee_flexion_r/value	/jointset/knee_r/knee_adduction_r/value	/jointset/knee_r/knee_rotation_r/value	/jointset/ankle_r/ankle_angle_r/value	/jointset/subtalar_r/subtalar_angle_r/value	/jointset/ground_pelvis/pelvis_tilt/speed	/jointset/ground_pelvis/pelvis_tx/speed	/jointset/ground_pelvis/pelvis_ty/speed	/jointset/hip_r/hip_flexion_r/speed	/jointset/hip_r/hip_adduction_r/speed	/jointset/hip_r/hip_rotation_r/speed	/jointset/back/lumbar_extension/speed	/jointset/patellofemoral_r/patellar_flexion_r/speed	/jointset/knee_r/knee_flexion_r/speed	/jointset/knee_r/knee_adduction_r/speed	/jointset/knee_r/knee_rotation_r/speed	/jointset/ankle_r/ankle_angle_r/speed	/jointset/subtalar_r/subtalar_angle_r/speed	/forceset/tau_hip_flexion_r	/forceset/tau_hip_adduction_r	/forceset/tau_hip_rotation_r	/forceset/tau_knee_flexion_r	/forceset/tau_ankle_angle_r	/forceset/tau_subtalar_angle_r	/forceset/tau_lumbar_extension	lambda_cid13_p0	lambda_cid14_p0	lambda_cid14_p1	lambda_cid14_p2	lambda_cid14_p3	lambda_cid14_p4	lambda_cid14_p5	/jointset/ground_pelvis/pelvis_tilt/accel	/jointset/ground_pelvis/pelvis_tx/accel	/jointset/ground_pelvis/pelvis_ty/accel	/jointset/hip_r/hip_flexion_r/accel	/jointset/hip_r/hip_adduction_r/accel	/jointset/hip_r/hip_rotation_r/accel	/jointset/back/lumbar_extension/accel	/jointset/patellofemoral_r/patellar_flexion_r/accel	/jointset/knee_r/knee_flexion_r/accel	/jointset/knee_r/knee_adduction_r/accel	/jointset/knee_r/knee_rotation_r/accel	/jointset/ankle_r/ankle_angle_r/accel	/jointset/subtalar_r/subtalar_angle_r/accel	gamma_cid13_p0	gamma_cid14_p0	gamma_cid14_p1	gamma_cid14_p2	gamma_cid14_p3	gamma_cid14_p4	gamma_cid14_p5
1.5	-0.07255325217627862	0.02682403704024751	0.8141714507027885	0.8159933547191969	-0.2203271194101389	-0.1344120416794265	-0.6289253113683378	0.9520770766166511	0.9520770766166439	-0.06218143155235791	0.1745310004838893	0.3032429518545149	0.146336259227054	0.4433260155204496	0.224966125931529	0.5228273572153925	-2.022486949480334	0.03369534698595429	-0.2048431249389101	0.8016903179903679	-2.000431902524402	-2.000431902524439	0.4284905369502826	5.707066587690638e-05	-0.5248498585574606	-0.1612300472351818	-0.1534038895388352	-0.001698789472290965	0.01968615356321804	-0.3197594882323064	0.0306246659006858	0.0001157189838839189	0.2099985746964546	-8.682543991106868	-32.22135400944921	-5.140859740146364	0.7268231048178944	-4.767113965216143	-630.1256141575418	67.14502239279621	0.185438322609297	0.6130196959667449	-0.5234412124786229	-1.042040804103885	-0.1838727245669696	-0.5499491996904227	1.846861296889775	-1.328697465511119	-1.328697465511133	0.4540044219967577	-0.01830200201768636	-0.6292688312976413	-0.3798643261385408	1.778537018616367e-07	1.541002442121686e-07	-9.495393702557171e-07	1.605808568585668e-06	1.817016813247285e-08	2.85826427389927e-07	-6.459195178178807e-07
1.51	-0.06811105446665247	0.02910408624640473	0.8193724841471861	0.7957185064769311	-0.2200002887251753	-0.1364872890289132	-0.6208175907786609	0.9320089811040554	0.9320089811040519	-0.05787197762533286	0.1745315651251466	0.2979635172561384	0.1447038789605049	0.4450475740457863	0.2310140922772136	0.5172672861015378	-2.032211993358287	0.03165580965561678	-0.2102056584785645	0.8197357315169226	-2.012905587738183	-2.01290558773819	0.4333770031139628	5.545367762863091e-05	-0.530953181941675	-0.1652190952740463	-0.1463659634676487	-0.002554389175577138	0.01940299449880993	-0.3152975918064683	0.03197788156840534	-0.00078887088183257	0.2033791472946736	-9.730880384078237	-31.51769761007995	-5.285146626167403	0.6066224029820857	-4.783897176647568	-625.1008420913234	66.41409483300893	0.1556361159963274	0.5962430084383434	-0.589043941816872	-0.8971116694795627	-0.2160948460791094	-0.5290572882970865	1.76567111624575	-1.164491347696073	-1.164491347691506	0.5023843563515573	0.009094156101355378	-0.5882495639667714	-0.4043437120724157	1.56620647887212e-07	1.404544239772212e-07	-8.1779840495008e-07	1.451826790201542e-06	1.06583994413897e-08	2.719270490101012e-07	-5.844655992860685e-07
1.52	-0.06365361687207956	0.03144372669693237	0.8245145661042494	0.7753545326978928	-0.2196942735352806	-0.1386160920852365	-0.6125329581065823	0.9118245912796613	0.911824591279636	-0.0535143757081127	0.1745321507371557	0.2926255723295235	0.1430324244797044	0.4463739925111514	0.2368843748056119	0.5110370597485294	-2.040312056829793	0.02953224797281432	-0.2155542663059835	0.8370727344717872	-2.023690764887347	-2.023690764887323	0.4381201349895588	6.12648225765197e-05	-0.5365519242052256	-0.169044890085391	-0.1393280373966105	-0.003409988878897976	0.01911983543411731	-0.31083569538068	0.03333109723612464	-0.001693460747596487	0.1967597198927625	-10.78974053685509	-30.81275076551133	-5.42437371624306	0.4800930867843894	-4.821469201666858	-620.0686709126164	65.74757507085442	0.1064103106149203	0.5774829325095355	-0.6574722603093233	-0.7170447228145961	-0.2006775950597782	-0.547164057242975	1.705179182551769	-0.9909958525876855	-0.9909958525876837	0.4253375643798449	-0.01681637537902947	-0.5283526071647585	-0.3472136806342505	1.442726982978449e-07	1.269219696616214e-07	-7.976687469407357e-07	1.314598767283086e-06	1.430648279384886e-08	2.661305709890582e-07	-5.894148242296119e-07
1.53	-0.05918498766892544	0.03384108812103457	0.8295910618481729	0.754917835237738	-0.2194097033345049	-0.1407986117424544	-0.6040786590926299	0.8915407658900354	0.8915407658900651	-0.04911064413877992	0.1745326819541882	0.2872341860605447	0.1413238664260757	0.4472778010884388	0.2425483645817668	0.5041569734623492	-2.046740132010708	0.02738197323548322	-0.2209358068924319	0.853649260904677	-2.032787516876562	-2.032787516876565	0.4425850888810733	1.822207840917235e-05	-0.5416400477814741	-0.1726188996638013	-0.1322016207474169	-0.004534004976367247	0.01888158402786715	-0.3066169059928029	0.03466692232896903	-0.002589154990533356	0.1900527357295784	-11.84917598568185	-30.13269666115753	-5.5586184068328	0.3465133315154452	-4.769835515170239	-615.290539412681	65.18751940529154	0.07126926990184994	0.55493280810303	-0.7189900589823083	-0.5625793522229693	-0.222079194003753	-0.5313419844756152	1.613218261456678	-0.8260234104536368	-0.8260234104577052	0.4507904090385696	-0.001866698940042171	-0.4862129543478134	-0.3553365810289059	1.413651721176014e-07	1.135099666353283e-07	-8.961261029337013e-07	1.195171609546905e-06	2.981190894257161e-08	2.689434245992218e-07	-6.649173891157201e-07
1.54	-0.05470953975228217	0.0362939046044851	0.8345956140799923	0.7344254789384477	-0.2191466112372818	-0.1430344853905973	-0.5954627290367934	0.8711745712729033	0.8711745712728943	-0.0446635198090243	0.1745320190501786	0.2817944844115102	0.1395809998797455	0.4477377352103923	0.2479753866752745	0.4966483573277162	-2.051443824651352	0.02523662726086515	-0.2262250644840849	0.8693989428495433	-2.040164610400387	-2.040164610400417	0.4467986870726577	-0.0001775596659044261	-0.5462150002174392	-0.1759065886256055	-0.1250752040984067	-0.005658021074061442	0.01864333262093489	-0.302398116605001	0.03600274742176598	-0.003484849233817215	0.1833457515662566	-12.90597746758884	-29.45247519899538	-5.689742281140031	0.2089041223434595	-4.733563100343464	-610.5163594398319	64.68527336741772	0.01763541954798806	0.5300893959802115	-0.7831782299998663	-0.3721682147605124	-0.1996918425173262	-0.5287074582842544	1.539810284947025	-0.6470641595094233	-0.6470641595094224	0.3750664243938807	-0.0473641754078712	-0.4257183791079212	-0.2899495573131691	1.402983638731611e-07	9.874190382516223e-08	-1.02509818230909e-06	1.060703576248502e-06	4.943006757255718e-08	2.697956233792928e-07	-7.484216956760446e-07
1.55	-0.05023173813171944	0.03879975677469234	0.8395220144314981	0.713894765283415	-0.2189048086619852	-0.1453232056555175	-0.5866935897355444	0.8507432417425353	0.8507432417425095	-0.04017608197247319	0.1745287320211228	0.2763117065372288	0.1378069350014902	0.4477461208913422	0.2531499539400514	0.4885343215000301	-2.054402530467668	0.02313229522890898	-0.2314855163867042	0.8842739913427147	-2.045800827478807	-2.045800827478829	0.4506418828229601	-0.000524943113161425	-0.5502453733530099	-0.1788462493309794	-0.1178524871477771	-0.006948100884269372	0.01844448775479236	-0.2985753950300875	0.0376508076210651	-0.004488246173383332	0.1765863775561426	-13.95578602477391	-28.70140529025421	-5.866437157082747	0.09135482844726051	-4.727995394294645	-606.0454735604093	64.18962258987781	-0.01902439931612383	0.5043938418894734	-0.8400714587022519	-0.2132566828867901	-0.214519296456179	-0.5194805594769117	1.438113222744535	-0.4768586402484906	-0.4768586402472879	0.3817285742897754	-0.0350598593209057	-0.3773703063266602	-0.2870572986129028	1.413523828156245e-07	8.241142430749031e-08	-1.189228529929443e-06	9.089058384979737e-07	7.37868092787801e-08	2.683888068116487e-07	-8.411454002523131e-07
1.56	-0.04575614556269125	0.04135600530757973	0.8443643633848171	0.6933433575866345	-0.2186837924895927	-0.147663483740118	-0.577780347731119	0.8302645584097225	0.8302645584097162	-0.03565165569364793	0.1745206442715467	0.2707914902264845	0.1360052569218882	0.4472959249049254	0.2580546592113018	0.4798380776903612	-2.055582632996773	0.02107934668012681	-0.236536628418382	0.8982194834855933	-2.049635370886837	-2.04963537088685	0.4541963755309296	-0.001137703757860515	-0.5537026875103789	-0.1814292288948935	-0.1106297701972686	-0.008238180694565684	0.01824564288874881	-0.2947526734551774	0.03929886782034583	-0.005491643113089858	0.1698270035459315	-14.99452945309015	-27.95093173614026	-6.041066384489085	-0.02900322001172714	-4.732358466670665	-601.5879316928922	63.74546983544332	-0.07408091392545847	0.4761169972750932	-0.8996198263964303	-0.01644755731847676	-0.1894151458827091	-0.4868394840962877	1.353899014888412	-0.2867294254314355	-0.2867294254314357	0.3173258159273916	-0.100439614895885	-0.3111065834673707	-0.2186133290213549	1.404668912045812e-07	6.72060520321394e-08	-1.323985220485956e-06	7.549238690267924e-07	9.41987552566366e-08	2.669147132689791e-07	-9.079273041706359e-07
1.57	-0.04128732607267268	0.04395985891122237	0.8491169249200509	0.6727891153640478	-0.2184829274772594	-0.1500536162162204	-0.568732424485031	0.8097565800510702	0.8097565800510773	-0.03109364759631217	0.1745052649719778	0.2652396054198458	0.134179711313319	0.4463936447620015	0.2626614821258356	0.4705850580457495	-2.054958266805229	0.01910287108719922	-0.2414440951788334	0.9111969413576512	-2.051643858318329	-2.051643858318323	0.457357855934246	-0.00198300995483822	-0.5565753867312608	-0.1836215619089565	-0.1035776063495885	-0.009421411843371523	0.01802099883811289	-0.2908754587452203	0.04060178656944283	-0.006615394589759278	0.163205515070216	-16.01936638729797	-27.3473963013531	-6.297524076437836	-0.1319393519445794	-4.57835785922655	-597.4868833519338	63.1809554721523	-0.1094492155124604	0.4448017488734628	-0.9514658381801055	0.1480144625728079	-0.2004252267116313	-0.4856510693359635	1.244435517068921	-0.1104690738236221	-0.1104690738208282	0.3082497480660145	-0.08323582692628789	-0.2604666327350917	-0.2109660752980701	1.371570114016546e-07	5.34070638096897e-08	-1.42202483971267e-06	5.982116099047946e-07	1.096797065740351e-07	2.653565235075277e-07	-9.422819572665265e-07
